<?xml version="1.0" encoding="UTF-8" standalone="no"?>
<svg
   version="1.1"
   style="display: block;"
   viewBox="0 0 2048 2048"
   width="1024"
   height="1024"
   preserveAspectRatio="none"
   id="svg32"
   sodipodi:docname="sonic-transparent-background-icon.svg"
   inkscape:version="1.4.2 (ebf0e940d0, 2025-05-08)"
   inkscape:export-filename="sonic-transparent-background-icon.png"
   inkscape:export-xdpi="96"
   inkscape:export-ydpi="96"
   xmlns:inkscape="http://www.inkscape.org/namespaces/inkscape"
   xmlns:sodipodi="http://sodipodi.sourceforge.net/DTD/sodipodi-0.dtd"
   xmlns="http://www.w3.org/2000/svg"
   xmlns:svg="http://www.w3.org/2000/svg">
  <defs
     id="defs32" />
  <sodipodi:namedview
     id="namedview32"
     pagecolor="#505050"
     bordercolor="#ffffff"
     borderopacity="1"
     inkscape:showpageshadow="0"
     inkscape:pageopacity="0"
     inkscape:pagecheckerboard="1"
     inkscape:deskcolor="#505050"
     showguides="false"
     inkscape:zoom="0.67285156"
     inkscape:cx="607.11756"
     inkscape:cy="404.24964"
     inkscape:window-width="1920"
     inkscape:window-height="963"
     inkscape:window-x="3840"
     inkscape:window-y="44"
     inkscape:window-maximized="1"
     inkscape:current-layer="svg32" />
  <path
     transform="translate(0,0)"
     fill="rgb(249,62,0)"
     d="M 885.586 151.808 C 901.385 150.109 923.058 148.914 938.329 151.056 C 973.611 156.003 1007.02 180.241 1026.48 209.568 C 1038.16 226.618 1050.27 248.62 1067.81 260.588 C 1102.91 284.542 1149.99 284.929 1185.25 311.626 C 1199.49 322.41 1215.23 334.048 1224.82 349.304 C 1243.74 379.389 1263.69 409.794 1304.56 402.548 C 1323.38 399.277 1324.48 386.929 1327.44 370.438 C 1331.16 349.733 1328.83 328.26 1324.81 307.889 C 1314.76 256.892 1282.16 214.387 1238.9 186.528 C 1255.3 189.04 1271.69 192.052 1287.67 197.948 C 1363.26 225.845 1440.53 289.71 1451.14 374.012 C 1454.43 407.607 1453.26 444.997 1479.12 470.571 C 1488.95 480.191 1510.41 482.936 1518.83 470.214 C 1523.22 463.575 1518.51 441.26 1516.82 433.832 C 1513.02 417.122 1510.1 402.691 1510.69 385.531 C 1511.82 352.475 1526.4 328.95 1544.17 302.643 C 1543.72 318.658 1542.93 334.883 1546.07 350.568 C 1554.41 392.133 1587.27 411.058 1615.87 437.736 C 1630.69 451.568 1646.14 470.534 1655.53 488.624 C 1681.09 537.883 1684.28 586.686 1668.18 638.982 C 1673.57 630.751 1677.87 621.833 1683.68 613.001 C 1691.86 640.974 1696 691.665 1687.58 719.688 C 1674.29 763.913 1645.68 830.055 1613.14 861.845 C 1593.05 880.122 1567.37 891.764 1540.08 890.882 C 1467.01 888.521 1426.67 859.636 1393.37 794.903 C 1385.83 780.229 1371.83 751.449 1360.67 741.235 C 1333.91 716.737 1292.91 711.485 1258.67 711.858 C 1229.24 739.66 1225.86 790.029 1249.94 822.719 C 1253.05 826.929 1261.95 834.208 1266.15 838.075 C 1285.95 851.93 1306.64 865.151 1328.94 874.727 C 1312.58 837.542 1307.35 813.943 1298.88 774.526 C 1311.47 796.71 1322.92 818.941 1342.27 836.473 C 1393.45 882.866 1456.62 913.442 1513.47 951.191 C 1551.62 976.523 1618.38 1033.31 1628.13 1077.96 C 1656.36 1035.82 1604.39 997.055 1674.3 945.527 C 1660.86 1004.23 1661.53 1018.1 1693.11 1071.73 C 1699.94 1083.31 1708.75 1095.46 1715.52 1107.26 C 1745.22 1159.04 1750.43 1223.4 1737.71 1281.07 C 1731.19 1310.63 1718.07 1344.61 1707.39 1373.7 C 1745.66 1340.15 1754.55 1325.19 1776.97 1279.34 C 1777.15 1301.53 1777.48 1323.28 1774.2 1345.34 C 1765.02 1407.2 1726.91 1461.88 1683.8 1505.66 C 1643.32 1546.78 1590.9 1585.31 1538.47 1609.75 C 1514.36 1620.99 1492.77 1627.07 1467.58 1639.55 C 1437.6 1654.41 1412.65 1671.2 1384.21 1686.45 C 1323.79 1719.05 1256.28 1736.3 1187.63 1736.7 C 1174.53 1736.83 1153.19 1735.83 1140.27 1733.76 C 1161.21 1724.35 1170.19 1721.36 1182.74 1700.95 C 1162.65 1705.1 1142.68 1710.87 1122.64 1715.39 C 1036.19 1734.89 943.531 1727.88 878.539 1661.6 C 912.565 1668.39 960.905 1673.75 993.294 1654.7 C 995.702 1653.28 997.019 1651.51 998.299 1649.1 C 998.78 1619.92 869.779 1628.24 845.435 1621.41 C 821.441 1614.68 797.983 1609 775.316 1597.89 C 728.81 1577.23 693.717 1547.39 664.131 1506.22 C 653.104 1490.87 640.427 1474.4 627.746 1460.16 C 616.112 1447.09 601.977 1440.48 589.635 1430.43 C 643.631 1431.6 679.476 1463.41 732.059 1469.02 C 745.334 1470.44 761.736 1469.94 772.127 1460.65 C 797.672 1437.74 736.944 1419.36 722.045 1411.8 C 703.588 1402.38 686.388 1390.68 670.847 1376.98 C 630.455 1341.66 624.438 1315.8 595.164 1276.48 C 580.982 1257.31 563.73 1240.61 544.107 1227.06 C 475.993 1179.18 427.995 1190.96 352.878 1180.31 C 323.349 1175.96 294.715 1166.88 268.083 1153.4 C 246.09 1142.35 225.296 1127.05 211.003 1106.78 C 262.478 1130.91 301.597 1129.38 357.424 1126.9 C 375.655 1126.09 389.849 1125.51 408.247 1123.69 C 401.588 1118.78 396.213 1114.91 389.032 1110.77 C 384.458 1108.14 376.836 1105.92 374.232 1102.47 C 376.243 1099.33 385.616 1096.92 389.487 1096.25 C 459.13 1084.25 514.064 1126.15 584.768 1109.83 C 581.214 1105.81 577.613 1102.43 574.328 1098.21 C 565.85 1087.33 558.77 1075.49 548.579 1066.06 C 516.216 1036.12 473.783 1024.53 431.489 1017.02 C 418.127 1014.65 403.539 1011.95 390.072 1011.17 C 388.354 1011.07 386.635 1010.99 384.916 1010.94 C 466.077 984.442 540.418 981.704 618.605 1016.58 C 634.318 1023.59 652.507 1027.96 668.069 1035.72 C 681.947 1042.2 691.983 1050.76 707.734 1055.43 C 723.787 1060.19 737.247 1060.25 753.491 1062.36 C 799.795 1068.36 828.454 1085.06 860.841 1117.46 C 868.154 1124.86 875.098 1132.61 881.648 1140.69 C 890.368 1151.28 915.044 1186.16 929.281 1186.55 C 945.748 1180.62 935.03 1145.61 930.953 1133.86 C 917.901 1096.21 888.37 1079.41 855.663 1062.13 C 918.864 1069.67 962.189 1099.85 1009.24 1140.23 C 1033.97 1161.45 1048.35 1183.17 1061.75 1212.6 C 1060.4 1181.5 1063.92 1173.59 1055.01 1140.5 C 1108.52 1178.85 1117.69 1233.39 1124.05 1294.94 C 1127.78 1331.09 1139.09 1365.8 1183.44 1357.07 C 1244.36 1345.09 1217.79 1259.91 1196.37 1226.16 C 1231.45 1238.18 1256.76 1260.41 1273.03 1293.86 C 1282.68 1313.71 1288.72 1341.95 1306.33 1356.06 C 1313.1 1361.49 1326.59 1332.5 1328.79 1327.67 C 1332.98 1316.58 1338.72 1300.04 1335.07 1288.45 C 1309.27 1206.99 1221.82 1174.57 1149.2 1147.1 C 1114.91 1133.62 1081.63 1117.88 1046.5 1106.64 C 1016.72 1097.11 982.468 1085.14 955.767 1068.66 C 940.624 1059.89 933.627 1044.42 913.98 1036.24 C 872.004 1018.76 833.914 1020.27 790.215 1017.67 C 700.654 1012.34 624.33 969.245 552.276 919.092 C 601.393 924.946 643.028 932.801 693.198 936.875 C 673.429 917.176 648.623 884.384 640.525 858.374 C 629.435 820.169 617.578 786.644 577.042 771.036 C 531.021 753.316 485.115 759.67 437.391 740.47 C 456.949 735.468 478.536 734.285 498.053 729.657 C 576.007 711.17 661.025 704.96 725.907 761.432 C 750.142 781.668 830.511 855.264 841.63 786.598 C 850.475 731.977 805.031 713.433 765.886 688.389 C 709.672 652.425 702.32 587.663 683.776 528.556 C 661.512 457.587 596.153 459.823 534.005 451.05 C 552.602 440.21 583.255 431.447 604.919 427.037 C 662.983 415.218 714.982 430.394 760.527 467.587 C 784.918 486.427 808.976 520.794 842.21 523.036 C 882.18 525.732 896.373 485.86 896.096 453.14 C 895.734 410.304 884.826 375.622 854.601 344.999 C 896.273 353.953 930.453 377.138 954.866 412.255 C 976.888 443.931 1000.49 478.265 1043.38 452.148 C 1056.02 444.451 1059.92 436.018 1063.16 422.418 C 1051.7 367.948 991.123 364.491 972.907 325.935 C 940.454 257.244 990.811 172.252 885.586 151.808 z"
     id="path2"
     style="fill:#7019ff;fill-opacity:1" />
  <path
     transform="translate(0,0)"
     fill="rgb(208,12,2)"
     d="M 1298.88 774.526 C 1311.47 796.71 1322.92 818.941 1342.27 836.473 C 1393.45 882.866 1456.62 913.442 1513.47 951.191 C 1551.62 976.523 1618.38 1033.31 1628.13 1077.96 C 1656.36 1035.82 1604.39 997.055 1674.3 945.527 C 1660.86 1004.23 1661.53 1018.1 1693.11 1071.73 C 1699.94 1083.31 1708.75 1095.46 1715.52 1107.26 C 1745.22 1159.04 1750.43 1223.4 1737.71 1281.07 C 1731.19 1310.63 1718.07 1344.61 1707.39 1373.7 C 1745.66 1340.15 1754.55 1325.19 1776.97 1279.34 C 1777.15 1301.53 1777.48 1323.28 1774.2 1345.34 C 1765.02 1407.2 1726.91 1461.88 1683.8 1505.66 C 1643.32 1546.78 1590.9 1585.31 1538.47 1609.75 C 1514.36 1620.99 1492.77 1627.07 1467.58 1639.55 C 1437.6 1654.41 1412.65 1671.2 1384.21 1686.45 C 1323.79 1719.05 1256.28 1736.3 1187.63 1736.7 C 1174.53 1736.83 1153.19 1735.83 1140.27 1733.76 C 1161.21 1724.35 1170.19 1721.36 1182.74 1700.95 C 1162.65 1705.1 1142.68 1710.87 1122.64 1715.39 C 1036.19 1734.89 943.531 1727.88 878.539 1661.6 C 912.565 1668.39 960.905 1673.75 993.294 1654.7 C 995.702 1653.28 997.019 1651.51 998.299 1649.1 C 998.78 1619.92 869.779 1628.24 845.435 1621.41 C 821.441 1614.68 797.983 1609 775.316 1597.89 C 728.81 1577.23 693.717 1547.39 664.131 1506.22 C 653.104 1490.87 640.427 1474.4 627.746 1460.16 C 616.112 1447.09 601.977 1440.48 589.635 1430.43 C 643.631 1431.6 679.476 1463.41 732.059 1469.02 C 745.334 1470.44 761.736 1469.94 772.127 1460.65 C 797.672 1437.74 736.944 1419.36 722.045 1411.8 C 703.588 1402.38 686.388 1390.68 670.847 1376.98 C 630.455 1341.66 624.438 1315.8 595.164 1276.48 C 580.982 1257.31 563.73 1240.61 544.107 1227.06 C 475.993 1179.18 427.995 1190.96 352.878 1180.31 C 323.349 1175.96 294.715 1166.88 268.083 1153.4 C 246.09 1142.35 225.296 1127.05 211.003 1106.78 C 262.478 1130.91 301.597 1129.38 357.424 1126.9 C 375.655 1126.09 389.849 1125.51 408.247 1123.69 C 401.588 1118.78 396.213 1114.91 389.032 1110.77 C 384.458 1108.14 376.836 1105.92 374.232 1102.47 C 376.243 1099.33 385.616 1096.92 389.487 1096.25 C 459.13 1084.25 514.064 1126.15 584.768 1109.83 C 581.214 1105.81 577.613 1102.43 574.328 1098.21 C 565.85 1087.33 558.77 1075.49 548.579 1066.06 C 516.216 1036.12 473.783 1024.53 431.489 1017.02 C 418.127 1014.65 403.539 1011.95 390.072 1011.17 C 388.354 1011.07 386.635 1010.99 384.916 1010.94 C 466.077 984.442 540.418 981.704 618.605 1016.58 C 634.318 1023.59 652.507 1027.96 668.069 1035.72 C 681.947 1042.2 691.983 1050.76 707.734 1055.43 C 723.787 1060.19 737.247 1060.25 753.491 1062.36 C 799.795 1068.36 828.454 1085.06 860.841 1117.46 C 868.154 1124.86 875.098 1132.61 881.648 1140.69 C 890.368 1151.28 915.044 1186.16 929.281 1186.55 C 945.748 1180.62 935.03 1145.61 930.953 1133.86 C 917.901 1096.21 888.37 1079.41 855.663 1062.13 C 918.864 1069.67 962.189 1099.85 1009.24 1140.23 C 1033.97 1161.45 1048.35 1183.17 1061.75 1212.6 C 1060.4 1181.5 1063.92 1173.59 1055.01 1140.5 C 1108.52 1178.85 1117.69 1233.39 1124.05 1294.94 C 1127.78 1331.09 1139.09 1365.8 1183.44 1357.07 C 1244.36 1345.09 1217.79 1259.91 1196.37 1226.16 C 1231.45 1238.18 1256.76 1260.41 1273.03 1293.86 C 1282.68 1313.71 1288.72 1341.95 1306.33 1356.06 C 1313.1 1361.49 1326.59 1332.5 1328.79 1327.67 C 1333.81 1328.79 1357.68 1340.16 1360.51 1343.83 C 1349.74 1362.9 1325.46 1387.08 1301.58 1385.64 C 1274.05 1383.98 1264.73 1371.88 1247.34 1352.86 C 1228.67 1404.07 1199.7 1415.66 1149.46 1391.92 C 1089.76 1363.7 1106.88 1300.29 1090.28 1246.68 C 1078.7 1270.31 1063.14 1295.84 1037.67 1271.29 C 1023.13 1257.28 1025.65 1247.73 1022.53 1229.85 C 1019.44 1212.1 1012.4 1193.83 1000.78 1179.99 C 992.183 1169.62 984.067 1166.64 972.135 1161.8 C 975.102 1187.31 970.186 1205.93 948.363 1221.65 C 935.931 1223.98 927.87 1221.64 916.521 1217.46 C 883.42 1205.81 865.821 1177.06 842.108 1153.44 C 810.352 1121.8 771.217 1096.62 725.538 1092.73 C 710.156 1091.39 694.463 1091.32 679.427 1087.36 C 655.418 1081.05 632.498 1069.08 609.626 1059.25 C 633.13 1093.23 643.653 1103.19 680.008 1121.11 C 698.67 1130.3 726.999 1146.95 733.417 1167.88 C 731.375 1176.6 729.934 1180.47 726.575 1188.86 C 699.87 1189.97 695.142 1182.72 671.889 1172.78 C 661.563 1168.46 650.785 1165.31 639.758 1163.4 C 606.372 1157.42 590.274 1160.71 558.696 1159.86 C 536.189 1159.25 496.281 1151.55 473.715 1146.07 C 512.324 1179.63 557.772 1177.05 601.182 1207.76 C 651.717 1243.51 664.225 1299.63 714.069 1334.9 C 722.613 1340.94 737.272 1351.92 746.156 1355.99 C 778.37 1370.67 814.168 1378.96 831.744 1412.99 C 846.7 1441.95 821.216 1486.11 794.278 1499.29 C 774.64 1508.91 747.857 1499.08 728.102 1491.63 C 752.333 1530.17 774.096 1548.53 816.728 1565.27 C 841.59 1575.04 855.445 1579.52 883.591 1581.23 C 909.976 1584.01 928.485 1577.35 955.175 1579.72 C 979.842 1581.91 1076.58 1588.37 1073.05 1626.33 C 1071.95 1638.11 1039.6 1654.26 1027.23 1661.41 C 1066.56 1680.59 1130.63 1667.2 1170.3 1652.88 C 1192.22 1644.97 1211.19 1629.83 1236.58 1634.74 C 1268.28 1640.86 1231.01 1669.32 1219.11 1675.72 C 1266.03 1677.52 1332.21 1657.94 1371.6 1633.29 C 1415.53 1605.8 1437.8 1599.29 1488.89 1588.32 C 1540.52 1577.22 1599.91 1541.42 1634.89 1502.09 C 1643.85 1489.1 1649.99 1477.13 1660.31 1464.9 C 1673.82 1448.89 1693.45 1436.1 1704.12 1418.48 C 1690.25 1423.84 1678.89 1426.37 1665.28 1419.13 C 1660.85 1406.38 1661.02 1398.74 1660.11 1385.84 C 1657.61 1350.3 1669.43 1332.62 1687.42 1303.91 C 1695.15 1291.57 1702.26 1272.1 1705.06 1257.34 C 1717.23 1193.2 1702.06 1127.9 1666.38 1074.08 C 1665.9 1094.89 1662.62 1134.3 1653.25 1153.13 C 1648.46 1162.74 1627.16 1184.6 1617.35 1187.51 C 1608.53 1182.25 1604.46 1112.62 1596.79 1095.13 C 1571.22 1036.87 1525.7 991.041 1471.88 958.093 C 1454.3 947.325 1435.54 938.997 1417.52 929.044 C 1398.55 919.142 1376.23 906.374 1357.04 898.038 C 1357.06 919.136 1360.16 923.689 1335.75 920.263 C 1327.53 919.109 1303.94 909.703 1298.91 904.979 C 1275.71 883.165 1222.93 844.158 1205.61 819.54 L 1206.28 817.68 C 1204.31 815.195 1203.79 814.72 1201.54 812.655 L 1201.9 811.84 C 1206.13 814.098 1214.88 820.971 1216.66 821.628 C 1225.07 824.732 1232.8 826.489 1241.57 830.265 L 1243.57 829.669 L 1243.82 827.691 C 1240.28 825.277 1235.35 824.265 1234.57 822.439 C 1237.82 820.469 1241.41 818.44 1245.11 819.269 C 1251.49 826.253 1255.98 834.397 1264.4 838.479 L 1266.15 838.075 C 1285.95 851.93 1306.64 865.151 1328.94 874.727 C 1312.58 837.542 1307.35 813.943 1298.88 774.526 z"
     id="path3"
     style="fill:#345de3;fill-opacity:1" />
  <path
     transform="translate(0,0)"
     fill="rgb(208,12,2)"
     d="M 885.586 151.808 C 901.385 150.109 923.058 148.914 938.329 151.056 C 973.611 156.003 1007.02 180.241 1026.48 209.568 C 1038.16 226.618 1050.27 248.62 1067.81 260.588 C 1102.91 284.542 1149.99 284.929 1185.25 311.626 C 1199.49 322.41 1215.23 334.048 1224.82 349.304 C 1243.74 379.389 1263.69 409.794 1304.56 402.548 C 1323.38 399.277 1324.48 386.929 1327.44 370.438 C 1331.16 349.733 1328.83 328.26 1324.81 307.889 C 1314.76 256.892 1282.16 214.387 1238.9 186.528 C 1255.3 189.04 1271.69 192.052 1287.67 197.948 C 1363.26 225.845 1440.53 289.71 1451.14 374.012 C 1454.43 407.607 1453.26 444.997 1479.12 470.571 C 1488.95 480.191 1510.41 482.936 1518.83 470.214 C 1523.22 463.575 1518.51 441.26 1516.82 433.832 C 1513.02 417.122 1510.1 402.691 1510.69 385.531 C 1511.82 352.475 1526.4 328.95 1544.17 302.643 C 1543.72 318.658 1542.93 334.883 1546.07 350.568 C 1554.41 392.133 1587.27 411.058 1615.87 437.736 C 1630.69 451.568 1646.14 470.534 1655.53 488.624 C 1681.09 537.883 1684.28 586.686 1668.18 638.982 C 1673.57 630.751 1677.87 621.833 1683.68 613.001 C 1691.86 640.974 1696 691.665 1687.58 719.688 C 1674.29 763.913 1645.68 830.055 1613.14 861.845 C 1604.65 850.077 1591.78 848.97 1578.93 845.359 C 1600.49 835.756 1621.06 807.471 1629.69 785.706 C 1637.75 765.367 1635.9 747.632 1636.59 726.542 C 1637.52 698.046 1624.54 674.909 1624.54 647.06 C 1624.54 634.124 1632.54 621.719 1637.56 610.219 C 1652.32 579.387 1653.71 544.088 1639.77 512.498 C 1634.71 501.183 1628.09 490.636 1620.09 481.169 C 1607.03 465.706 1563.62 429.369 1545.89 419.197 C 1555.26 449.259 1559.43 474.606 1545.9 505.912 C 1543.6 511.237 1535.02 521.618 1528.76 522.902 C 1510.38 526.666 1497.32 527.592 1480.79 517.45 C 1463.87 507.068 1439.7 478.976 1434.78 460.395 C 1431.55 448.242 1431.97 420.889 1431.19 407.154 C 1428.65 362.705 1415.42 329.505 1383.24 298.273 C 1374.57 289.863 1364.31 282.288 1355.97 274.091 C 1364.45 292.795 1368.49 312.982 1374.42 332.381 C 1380.59 352.587 1385.78 370.459 1377.16 390.78 C 1356.69 439.029 1315.75 465.399 1264.19 446.371 C 1242.62 438.412 1236.08 425.082 1226.61 405.393 C 1216.94 385.565 1202.69 361.77 1185.73 347.505 C 1148.68 316.346 1092.11 311.412 1051.59 287.46 C 1023.08 270.602 1011.09 231.999 985.076 210.212 C 991.858 242.388 989.393 282.094 1005.64 311.067 C 1022.49 340.468 1054.44 350.386 1075.22 377.377 C 1109.46 421.87 1098.84 486.313 1038.2 498.436 C 996.269 506.818 966.869 487.369 938.817 457.122 C 927.611 477.513 931.377 490.459 930.228 512.493 C 929.482 526.79 928.313 544.903 929.369 559.692 C 927.345 563.783 916.391 566.689 913.755 567.598 C 888.128 576.436 849.25 587.117 823.683 570.692 C 764.178 532.464 756.327 479.63 680.53 460.581 C 704.38 502.856 731.605 540.813 749.802 586.65 C 761.178 615.309 780.136 642.371 805.834 659.794 C 832.26 677.031 865.194 691.325 875.347 724.312 C 879.511 738.828 882.416 757.569 882.636 772.651 C 882.86 788.068 887.98 818.362 883.246 832.266 C 873.381 861.243 846.407 868.52 819.544 859.92 C 786.681 849.4 763.372 834.617 735.575 815.129 C 724.534 807.587 709.208 801.555 697.331 795.124 C 677.344 784.475 670.234 783.713 648.141 784.899 C 671.752 808.158 709.99 816.749 705.954 857.499 C 701.442 903.06 754.415 930.629 790.657 943.214 C 796.029 945.079 803.634 945.41 807.944 950.079 L 807.32 951.48 C 799.439 954.157 784.962 954.752 775.992 956.549 C 761.787 959.396 747.649 963.932 733.444 965.738 C 764.697 979.225 811.737 980.349 845.475 977.175 C 879.907 973.935 904.976 969.433 940 977.901 C 977.714 985.351 973.534 1029.33 1005.56 1047.54 C 1026.61 1059.51 1043.48 1060.08 1066.49 1064.8 C 1078.29 1067.23 1109.34 1078.34 1116.86 1087.6 C 1068.15 1076.22 1010.15 1069.11 959.585 1066.4 C 959.585 1066.4 956.147 1068.44 955.767 1068.66 C 940.624 1059.89 933.627 1044.42 913.98 1036.24 C 872.004 1018.76 833.914 1020.27 790.215 1017.67 C 700.654 1012.34 624.33 969.245 552.276 919.092 C 601.393 924.946 643.028 932.801 693.198 936.875 C 673.429 917.176 648.623 884.384 640.525 858.374 C 629.435 820.169 617.578 786.644 577.042 771.036 C 531.021 753.316 485.115 759.67 437.391 740.47 C 456.949 735.468 478.536 734.285 498.053 729.657 C 576.007 711.17 661.025 704.96 725.907 761.432 C 750.142 781.668 830.511 855.264 841.63 786.598 C 850.475 731.977 805.031 713.433 765.886 688.389 C 709.672 652.425 702.32 587.663 683.776 528.556 C 661.512 457.587 596.153 459.823 534.005 451.05 C 552.602 440.21 583.255 431.447 604.919 427.037 C 662.983 415.218 714.982 430.394 760.527 467.587 C 784.918 486.427 808.976 520.794 842.21 523.036 C 882.18 525.732 896.373 485.86 896.096 453.14 C 895.734 410.304 884.826 375.622 854.601 344.999 C 896.273 353.953 930.453 377.138 954.866 412.255 C 976.888 443.931 1000.49 478.265 1043.38 452.148 C 1056.02 444.451 1059.92 436.018 1063.16 422.418 C 1051.7 367.948 991.123 364.491 972.907 325.935 C 940.454 257.244 990.811 172.252 885.586 151.808 z"
     id="path4"
     style="fill:#345de3;fill-opacity:1" />
  <path
     transform="translate(0,0)"
     fill="rgb(122,19,17)"
     d="M 1205.61 819.54 C 1201.38 815.093 1192.96 806.443 1189.83 801.508 C 1180.23 786.39 1176.69 755.846 1176.65 738.213 C 1176.59 709.21 1196.17 688.906 1216.49 670.025 C 1242.67 645.607 1275.88 637.769 1311.02 639.239 C 1361.48 641.349 1407.39 676.77 1441.67 711.304 C 1451.46 721.164 1475.97 757.295 1466.97 770.93 C 1452 779.11 1407.31 730.278 1389.2 727.232 C 1389.27 727.243 1385.9 725.86 1385.82 725.829 C 1450.26 794.499 1458.25 886.462 1578.93 845.359 C 1591.78 848.97 1604.65 850.077 1613.14 861.845 C 1593.05 880.122 1567.37 891.764 1540.08 890.882 C 1467.01 888.521 1426.67 859.636 1393.37 794.903 C 1385.83 780.229 1371.83 751.449 1360.67 741.235 C 1333.91 716.737 1292.91 711.485 1258.67 711.858 C 1229.24 739.66 1225.86 790.029 1249.94 822.719 C 1253.05 826.929 1261.95 834.208 1266.15 838.075 L 1264.4 838.479 C 1255.98 834.397 1251.49 826.253 1245.11 819.269 C 1241.41 818.44 1237.82 820.469 1234.57 822.439 C 1235.35 824.265 1240.28 825.277 1243.82 827.691 L 1243.57 829.669 L 1241.57 830.265 C 1232.8 826.489 1225.07 824.732 1216.66 821.628 C 1214.88 820.971 1206.13 814.098 1201.9 811.84 L 1201.54 812.655 C 1203.79 814.72 1204.31 815.195 1206.28 817.68 L 1205.61 819.54 z"
     id="path5"
     style="fill:#345de3;fill-opacity:1" />
  <path
     transform="translate(0,0)"
     fill="rgb(122,19,17)"
     d="M 955.767 1068.66 C 956.147 1068.44 959.585 1066.4 959.585 1066.4 C 1010.15 1069.11 1068.15 1076.22 1116.86 1087.6 C 1139.65 1092.59 1169.34 1103.76 1191.81 1112.09 C 1216.91 1121.94 1244.27 1130.22 1268.57 1141.91 C 1308.25 1160.98 1352.95 1189.88 1378.19 1226.21 C 1402.26 1260.85 1380.5 1312.26 1360.51 1343.83 C 1357.68 1340.16 1333.81 1328.79 1328.79 1327.67 C 1332.98 1316.58 1338.72 1300.04 1335.07 1288.45 C 1309.27 1206.99 1221.82 1174.57 1149.2 1147.1 C 1114.91 1133.62 1081.63 1117.88 1046.5 1106.64 C 1016.72 1097.11 982.468 1085.14 955.767 1068.66 z"
     id="path6"
     style="fill:#345de3;fill-opacity:1" />
  <path
     transform="translate(0,0)"
     fill="rgb(254,125,0)"
     d="M 1022.65 288.718 C 1042.23 308.24 1057.95 317.858 1082.79 329.112 C 1118.5 345.296 1156.01 350.167 1180.32 383.142 C 1197.19 406.03 1204.35 424.56 1216.48 449.014 C 1227.44 471.087 1269.03 482.695 1291.38 488.461 C 1309.24 493.068 1329.13 497.649 1346.16 487.328 C 1347.69 484.696 1352.1 476.377 1353.56 474.778 C 1367.85 459.086 1385.47 446.66 1394.84 426.816 C 1398.06 419.988 1400.53 412.504 1402.32 405.09 C 1404.05 397.943 1402.12 372.678 1405.55 368.157 L 1404.63 369.994 L 1406.76 370.122 C 1412.3 390.568 1408.1 415.611 1409.22 436.686 C 1409.56 448.836 1413 460.27 1415.68 472.083 C 1419.76 490.087 1421.47 507.894 1437.74 519.762 C 1452.6 530.604 1472.66 531.607 1487.9 541.579 C 1501.78 550.668 1515.44 561.499 1528.78 571.423 C 1536.27 577.091 1543.1 583.522 1551.47 587.837 C 1554.41 586.419 1554.79 586.205 1557.4 584.265 C 1559.4 580.797 1558.45 577.103 1558.02 573 C 1552.88 563.968 1549.83 558.125 1546.22 548.424 C 1556.73 543.715 1585.87 537.591 1583.33 524.414 C 1580.17 508.028 1575.34 490.333 1573.47 472.85 C 1591.88 485.454 1616.4 511.437 1619.91 534.789 C 1622.98 555.246 1620.4 581.413 1610.7 600.263 C 1604.99 609.078 1599.28 607.454 1598.05 619.226 C 1594.48 653.488 1607.59 688.441 1608.91 721.493 C 1609.46 735.3 1598.13 765.889 1593.71 779.396 C 1587.82 791.724 1583.84 808.014 1575.83 819.16 C 1561.25 839.449 1539.48 850.443 1517.85 834.875 C 1513.86 827.325 1513.46 822.377 1512.52 814.108 C 1517.92 802.354 1528.87 773.084 1520.61 763.907 C 1507.04 748.827 1499.05 727.939 1486.72 712.138 C 1472.13 693.428 1449.95 679.69 1440.84 656.947 C 1435.76 645.829 1447.97 637.998 1449.67 629.523 C 1452.49 615.416 1449.48 612.393 1456.68 598.884 C 1474.94 620.902 1476.23 647.089 1495.78 667.864 C 1506.68 678.705 1522.99 690.982 1538.82 691.792 C 1550.09 692.368 1554.63 682.745 1551.8 672.733 C 1545.63 650.856 1532.87 638.519 1514.84 625.904 C 1511.04 612.411 1507.24 596.8 1493.84 589.28 C 1485.39 584.537 1475.95 583.72 1467.03 580.594 C 1456.31 576.839 1445.72 569.968 1434.17 568.95 C 1430.86 568.677 1425.81 574.658 1423.64 577 C 1419.87 573.117 1402.08 552.635 1398.74 550.943 C 1383.71 544.357 1360.11 534.101 1343.94 535.641 C 1335.68 536.428 1347.08 554.745 1349.24 558.607 C 1349.37 563.431 1349.94 567.492 1350.23 572.165 L 1335.87 571.209 C 1311.68 574.118 1289.83 567.459 1264.94 567.84 C 1249.5 568.077 1215.46 583.301 1202.56 575.468 C 1187.68 566.423 1221.83 548.689 1214.67 539.028 C 1191.71 527.812 1156.79 554.764 1137.03 565.59 C 1129.39 569.775 1119.85 571.407 1113.35 577.495 C 1092.77 596.639 1130.17 600.809 1142.21 601.798 C 1148.58 602.32 1156.63 603.867 1160.61 608.965 C 1164.06 625.918 1153.38 640.713 1136.28 642.962 C 1128.41 643.998 1112.04 644.742 1107.01 651.365 C 1101.3 658.887 1100.48 675.542 1086.77 666.615 C 1069.59 655.431 1079.07 617.882 1054.75 617.021 C 1050.78 616.907 1042.88 620.802 1040.55 624.6 C 1029.19 643.087 1019.74 665.484 1011.82 685.672 C 1008.43 694.298 1009.73 707.355 1005.29 716.071 C 999.169 728.829 986.355 734.002 981.649 746.245 C 978.368 754.782 980.456 765.445 981.38 773.87 C 985.573 812.102 1027.54 837.269 1036.36 869.881 C 1033.95 880.574 1029.95 885.039 1026.75 894.251 C 1030.03 903.986 1036.85 915.517 1047.41 919.331 C 1060.19 923.942 1096.74 940.056 1106.11 923.216 C 1109.6 916.949 1107.71 900.71 1104.68 894.308 C 1087.41 856.015 1045.58 849.651 1043.8 799.651 C 1043.05 778.827 1052.18 768.27 1052.76 753.653 C 1053.65 731.275 1043.66 717.461 1049.17 692.16 C 1096.57 734.862 1055.96 773.127 1090.12 814.428 C 1115.96 843.586 1146.19 858.716 1161.59 896.747 C 1171.78 921.903 1166.2 961.722 1190.96 976.863 C 1216.06 992.213 1237.71 988.246 1234.45 954.465 C 1231.63 925.347 1213.62 910.707 1206.83 885.595 C 1222.58 902.136 1246.59 930.246 1268.25 936.04 C 1282.57 939.87 1294.14 937.517 1307.87 947.07 C 1329.65 986.052 1290.88 1040.12 1342.52 1066.66 C 1354.91 1073.02 1385.17 1093.58 1391.18 1066.36 C 1396.41 1042.67 1384.68 1031.21 1369.3 1015.63 C 1382.31 1017.14 1389.31 1017.96 1400.15 1009.14 C 1420.89 992.256 1401.26 977.252 1388.43 964.673 C 1379.51 955.928 1376.28 945.14 1373.53 933.597 C 1401.09 937.642 1429.43 952.058 1447.67 973.761 C 1462.98 991.964 1456.16 1019.09 1463.75 1038.89 C 1473.48 1064.23 1483.93 1088.3 1493.2 1114.04 C 1503.48 1098.41 1503.12 1096.78 1506.03 1079.37 C 1510.34 1093.38 1513.16 1106.66 1516.68 1120.67 C 1521.84 1138.43 1521.29 1161.39 1539.76 1171.52 C 1548.72 1176.42 1554.46 1167.43 1557.61 1160.52 C 1568.17 1137.37 1565.01 1113.45 1568.66 1089.32 C 1587.62 1123.16 1597.46 1174.31 1594.73 1212.83 C 1593.67 1227.68 1584.66 1266.94 1599.29 1276.14 C 1606.81 1275.5 1622.45 1261.5 1631.68 1259.48 C 1633.09 1259.17 1638.23 1253.64 1639.34 1252.27 C 1667.23 1221.46 1659.11 1200.05 1663.51 1163.14 C 1664.17 1157.55 1671.66 1140.57 1673.63 1129.74 C 1688.26 1163.01 1701.23 1186.06 1695.01 1223.77 C 1694.24 1238.56 1690.99 1249.03 1686.61 1263.01 C 1682.19 1277.16 1674.61 1280.35 1667.88 1290.96 C 1656.85 1310.13 1632.85 1322.66 1623.08 1341.1 C 1607.94 1369.7 1629.48 1382.46 1606.23 1411.3 C 1588.09 1433.79 1577.43 1430.26 1556.34 1446.62 C 1553.91 1448.51 1561.14 1457.05 1564.42 1456.79 C 1579.41 1460.94 1597.5 1462.43 1612.73 1459.05 C 1591.8 1482.2 1586.69 1505.3 1561.24 1523 C 1546.71 1533.1 1532.22 1541.66 1516.02 1548.91 C 1495.37 1558.16 1475.53 1563.46 1454.18 1570.35 C 1441.67 1574.38 1428.9 1580.03 1416.12 1584.11 C 1404.05 1587.96 1390.95 1590.88 1379.31 1595.44 C 1359.67 1603.13 1340.41 1613.69 1321.44 1622.96 C 1312.81 1627.17 1302.34 1633.86 1293.61 1637.08 C 1286.91 1639.57 1279.86 1640.96 1272.73 1641.18 C 1272.17 1641.2 1271.61 1641.21 1271.05 1641.23 C 1266.19 1628.03 1258.82 1621.73 1254.52 1609.02 C 1252.93 1604.32 1252.46 1596.22 1251.68 1591 C 1246.34 1588.56 1240.45 1585.67 1234.95 1583.78 C 1218.42 1588.03 1218.46 1594.72 1205.08 1602.6 C 1159.59 1629.4 1132.3 1636.63 1079.79 1637.95 C 1092.9 1629.11 1104.11 1621.17 1108.17 1604.94 C 1110.7 1594.85 1104.77 1583.3 1095.43 1578.62 C 1074.44 1568.11 1046.95 1548.99 1025.17 1542.77 C 1007.68 1539.48 987.102 1549.14 971.287 1554.5 C 934.081 1567.13 892.015 1559.47 856.552 1545.02 C 851.411 1542.93 830.98 1536.15 828.92 1532.1 C 830.032 1528.87 838.185 1524.73 842.416 1520.39 C 840.34 1511.55 837.769 1505.47 834.44 1497.09 C 837.764 1485.19 852.087 1456.68 867.809 1464.17 C 878.752 1469.38 887.057 1470.05 899.071 1469.71 C 922.467 1386.28 834.57 1378.94 782.517 1347.51 C 758.665 1333.11 735.268 1316.41 712.369 1300.49 C 674.728 1274.33 672.895 1234.98 643.306 1206.79 C 632.507 1196.5 604.725 1187.19 587.796 1175.38 C 615.347 1182.95 629.19 1186.27 654.509 1201.8 C 673.958 1213.08 688.124 1233.82 705.425 1247.12 C 721.933 1259.81 746.726 1268.62 765.723 1277.85 C 776 1282.85 808.782 1302.41 818.363 1300.68 C 838.651 1283.96 802.725 1244.91 798.979 1228.5 C 793 1202.29 795.724 1171.52 775.928 1149.37 C 765.756 1137.98 745.474 1130.03 731.924 1121.06 C 762.907 1123.62 795.948 1138.44 816.55 1162.22 C 828.124 1175.58 830.777 1193.76 841.567 1206.81 C 855.384 1223.06 876.285 1230.64 886.563 1250.23 C 888.819 1254.53 893.158 1259.41 895.346 1263.83 C 907.065 1287.47 905.067 1321.91 937.468 1328.74 C 939.239 1329.12 941.617 1328.61 943.121 1327.34 C 954.042 1314.89 952.138 1291.93 959.674 1275.32 C 969.079 1254.59 978.922 1244.94 988.946 1228.19 C 987.858 1249.43 994.624 1283.84 1000.82 1304.55 C 1006.37 1323.09 1008.39 1344.33 1020.64 1359.87 C 1042.95 1385.78 1047.43 1334.54 1062.83 1331.76 C 1067.85 1336.92 1067.32 1356.64 1069.83 1365.47 C 1072.99 1376.58 1078.72 1382.75 1082.48 1393.03 C 1086.56 1403.89 1086.06 1418.33 1091.18 1428.61 C 1105.22 1456.79 1135.79 1499.04 1169.57 1503.12 C 1179.41 1504.3 1183.8 1497.41 1186.6 1489.41 C 1175.93 1469.79 1163.71 1466.22 1152.2 1443.87 C 1172.28 1450.49 1201.49 1468.25 1222.84 1460.24 C 1242.83 1452.75 1254.66 1396.15 1270.74 1395.57 C 1278.55 1398.54 1280.34 1408.09 1285.47 1413.31 C 1290.34 1418.27 1296.45 1421.33 1301.65 1426.99 C 1298.88 1440.86 1292.45 1463.29 1296.94 1476.07 C 1307.95 1483.56 1314.2 1488.73 1327.7 1489.58 C 1342.22 1485.02 1350.04 1479.13 1363.35 1473.85 C 1382.69 1466.19 1407.43 1465.99 1421.96 1448.44 C 1435.36 1432.26 1438.72 1405.03 1435.25 1384.79 C 1433.3 1373.4 1427.97 1360.68 1424.06 1349.67 C 1420.98 1340.99 1415.32 1330.44 1414.36 1321.47 C 1412.95 1308.32 1430.22 1308.45 1435.77 1301.01 C 1444.35 1289.52 1447.12 1263.86 1445.89 1250.12 C 1443.08 1218.69 1412.23 1222.97 1392.77 1207.28 C 1373.3 1191.59 1366.98 1178.78 1353.37 1158.73 C 1341.65 1141.46 1322.53 1121.11 1304.91 1109.4 C 1279.13 1092.28 1244.67 1091.09 1215.33 1082.3 C 1191.89 1075.27 1174 1064.01 1153.29 1052.35 C 1131.19 1039.9 1122.15 1037.26 1101.66 1020.4 C 1097.41 1021.04 1096.42 1021.1 1092.12 1020.96 C 1075.37 1021.84 1063.67 1026.72 1049.41 1026.9 C 1024.35 1027.31 1012 1007.83 1001.93 988.268 C 993.743 972.374 990.204 974.425 975.904 967.739 C 959.168 959.915 969.592 936.848 950.156 926.837 C 943.416 927.262 941.694 940.675 932.809 946.115 C 915.608 954.978 882.426 950.54 863.241 946.864 C 823.987 939.342 775.683 910.752 748.93 881 C 743.606 875.079 738.593 858.872 732.985 850.617 L 732.155 849.417 C 745.634 854.64 775.844 872.194 787.823 881.153 C 813.097 900.227 836.122 925.706 869.761 928.035 C 886.594 930.512 905.443 911.438 907.633 895.048 C 910.928 870.394 897.806 837.044 893.017 813.024 C 890.407 799.937 890.084 787.836 889.598 775.011 C 911.607 770.559 905.799 766.654 904.801 747.637 C 905.234 722.986 888.734 677.338 864.441 665.093 C 799.854 632.539 768.362 609.626 746.526 533.08 L 757.997 534.272 C 770.845 542.164 784.024 558.54 795.713 569.072 C 806.8 579.063 812.037 580.951 824.033 587.905 C 855.575 606.187 880.093 597.704 914.12 600.019 L 916.148 600.166 C 935.318 613.756 927.258 638.538 943.461 645.696 C 958.795 645.765 992.139 598.274 995.448 582.162 C 1002.11 549.736 972.235 559.107 960.365 536.092 L 959.768 534.912 C 970.991 524.687 971.272 522.839 974.111 507.769 C 979.952 510.35 985.953 512.553 992.076 514.367 C 1007.95 519.206 1024.55 522.173 1040.17 526.369 C 1062.54 532.376 1072.26 521.037 1091.84 518.529 C 1165.73 509.066 1111.99 486.036 1114.65 469.834 C 1122.14 464.626 1143.03 480.674 1152.73 474.258 C 1155.74 466.053 1142.19 448.676 1137.77 439.579 C 1126.05 415.45 1125.08 393.634 1108.34 371.91 C 1077.59 332.033 1044.49 336.556 1022.65 288.718 z"
     id="path7"
     style="fill:#47f8ff;fill-opacity:1" />
  <path
     transform="translate(0,0)"
     fill="rgb(254,125,0)"
     d="M 1382.56 1374.71 L 1383.6 1375.86 C 1387.42 1398.56 1380.46 1428.47 1359.51 1440.92 C 1350.49 1428.71 1374.17 1386.32 1382.56 1374.71 z"
     id="path25"
     style="fill:#47f8ff;fill-opacity:1" />
  <path
     transform="translate(0,0)"
     fill="rgb(208,12,2)"
     d="M 488.193 550.432 C 523.129 549.886 561.077 558.799 582.74 588.775 C 590.683 599.924 596.735 613.563 607.448 622.402 C 616.764 630.089 627.235 634.222 638.169 638.941 C 650.159 644.115 661.915 649.79 673.438 655.998 C 661.426 657.225 647.657 656.96 635.413 658.113 C 578.324 663.488 553.446 662.589 505.208 631.294 C 470.717 612.045 438.162 605.52 398.999 605.179 C 355.952 604.804 324.743 608.754 288.253 581.789 C 312.808 583.725 341.107 585.083 365.004 578.96 C 409.758 567.494 440.712 552.823 488.193 550.432 z"
     id="path27"
     style="fill:#345de3;fill-opacity:1" />
  <path
     transform="translate(0,0)"
     fill="rgb(249,62,0)"
     d="M 493.111 579.446 C 506.121 579.166 530.419 580.792 540.453 589.66 C 552.99 600.741 567.492 612.708 579.706 624.23 C 587.4 631.486 592.215 638.697 601.159 645.384 C 585.751 645.067 578.241 646.011 563.742 640.424 C 554.362 636.165 541.204 630.267 532.867 624.59 C 501.992 603.566 482.705 593.704 446.088 585.987 C 460.953 581.819 477.733 580.627 493.111 579.446 z"
     id="path28"
     style="fill:#47f8ff;fill-opacity:1" />
  <path
     transform="translate(0,0)"
     fill="rgb(208,12,2)"
     d="M 323.79 1296.47 C 334.753 1298.23 365.412 1312.15 378.682 1315.85 C 410.575 1325.84 448.449 1314.9 480.502 1313.38 C 525.417 1311.24 556.447 1326.81 580.184 1364.53 C 583.579 1369.93 594.171 1379.55 599.268 1384.21 C 600.34 1385.09 600.247 1385.25 601.027 1386.48 C 598.162 1386.91 573.952 1378.21 568.251 1376.73 C 562.09 1375.1 555.821 1373.92 549.492 1373.18 C 528.487 1370.74 512.468 1373.21 492.015 1373.92 C 477.734 1374.29 463.447 1373.49 449.294 1371.54 C 395.649 1364.15 356.276 1339.52 323.79 1296.47 z"
     id="path30"
     style="fill:#345de3;fill-opacity:1" />
  <path
     transform="translate(0,0)"
     fill="rgb(249,62,0)"
     d="M 492.281 1338.4 C 517.161 1334.11 546.947 1351.43 566.093 1365.81 C 552.569 1360.8 541.588 1359.42 527.324 1358.45 C 491.952 1360.04 482.72 1359.4 449.22 1345.78 C 466.287 1341.11 474.903 1340.2 492.281 1338.4 z"
     id="path31"
     style="fill:#7019ff;fill-opacity:1" />
  <path
     transform="translate(0,0)"
     fill="rgb(208,12,2)"
     d="M 344.61 858.438 C 407.286 856.283 453.15 870.961 501.759 910.347 C 473.754 903.21 446.429 895.9 417.26 895.324 C 396.23 894.91 371.5 897.338 350.218 898.827 C 305.438 902.594 218.574 900.107 179.885 876.903 C 242.092 877.803 283.492 861.001 344.61 858.438 z"
     id="path32"
     style="fill:#345de3;fill-opacity:1" />
</svg>
